#!OML:ASF H:\Dans Jumps\Project 1\Capture day 1\Session 1\subject.ASF
:FULLY-SPECIFIED
:DEGREES
334
root 0.292196 16.6118 3.62193 0.233565 0.466474 -1.37219
lowerback 8.47044 1.03783 -1.01233
upperback 5.39712 1.31253 1.50345
thorax 0.779601 0.610426 2.01835
lowerneck -10.8483 -0.66103 -0.948695
upperneck 33.9784 -1.15663 1.34251
head 13.2026 -0.43948 0.533374
rclavicle 5.56597e-015 5.1684e-015
rhumerus -13.3685 -10.837 -85.1255
rradius 32.2159
rwrist 28.624
rhand -23.8034 -25.5287
rfingers 7.12502
rthumb 2.66725 -55.4918
lclavicle 5.56597e-015 5.1684e-015
lhumerus -14.5222 10.4015 87.5438
lradius 13.7224
lwrist 4.90196
lhand -27.4063 -10.5756
lfingers 7.12502
lthumb -0.812552 19.4026
rfemur -32.6389 -0.0946409 21.2665
rtibia 45.0291
rfoot -11.7567 -0.958284
rtoes 16.3998
lfemur -31.5889 3.45624 -16.6859
ltibia 44.8167
lfoot -9.19742 6.41355
ltoes -6.26969
335
root 0.287228 16.6874 3.67718 0.501363 0.514013 -1.33458
lowerback 8.18416 1.09918 -1.01018
upperback 5.28125 1.39624 1.47994
thorax 0.813521 0.653372 1.98998
lowerneck -10.7467 -0.699411 -0.985147
upperneck 34.0322 -1.22044 1.39741
head 13.2055 -0.46409 0.553116
rclavicle -3.32964e-015 -6.36111e-015
rhumerus -13.4493 -11.0057 -85.0603
rradius 32.5003
rwrist 28.3712
rhand -23.836 -25.4648
rfingers 7.12502
rthumb 2.63574 -55.4283
lclavicle -3.32964e-015 -6.36111e-015
lhumerus -14.8324 10.7652 87.3065
lradius 13.5202
lwrist 4.4609
lhand -27.3972 -10.5758
lfingers 7.12502
lthumb -0.803733 19.4024
rfemur -32.005 -0.222639 21.2402
rtibia 43.8247
rfoot -11.5197 -0.782441
rtoes 16.7617
lfemur -30.9632 3.42783 -16.7169
ltibia 43.5654
lfoot -8.89578 6.29329
ltoes -6.03479
336
root 0.281767 16.7572 3.73103 0.748345 0.567007 -1.2909
lowerback 7.91699 1.15695 -1.02357
upperback 5.16829 1.47419 1.45945
thorax 0.840134 0.69304 1.97411
lowerneck -10.6533 -0.732869 -1.02193
upperneck 34.066 -1.27609 1.4501
head 13.2015 -0.485523 0.573109
rclavicle -1.86858e-014 -1.70955e-014
rhumerus -13.5338 -11.1245 -84.9918
rradius 32.7907
rwrist 28.177
rhand -23.8784 -25.4052
rfingers 7.12502
rthumb 2.59478 -55.3692
lclavicle -1.86858e-014 -1.70955e-014
lhumerus -15.1761 11.1916 87.0298
lradius 13.2903
lwrist 3.60663
lhand -27.4431 -10.5319
lfingers 7.12502
lthumb -0.84809 19.4462
rfemur -31.3898 -0.345627 21.2089
rtibia 42.6835
rfoot -11.3004 -0.610683
rtoes 17.1333
lfemur -30.3601 3.41246 -16.7572
ltibia 42.3759
lfoot -8.60902 6.16402
ltoes -5.76304
337
root 0.275448 16.8209 3.78356 0.985751 0.628032 -1.26047
lowerback 7.65652 1.21009 -1.0358
upperback 5.05432 1.54615 1.44746
thorax 0.862348 0.729646 1.96709
lowerneck -10.564 -0.763337 -1.05908
upperneck 34.082 -1.32575 1.49869
head 13.1905 -0.504999 0.592314
rclavicle -4.12478e-015 -3.97569e-015
rhumerus -13.6204 -11.1958 -84.9232
rradius 33.0835
rwrist 28.0286
rhand -23.9378 -25.3741
rfingers 7.12502
rthumb 2.53743 -55.3388
lclavicle -4.12478e-015 -3.97569e-015
lhumerus -15.5593 11.6286 86.7239
lradius 13.0689
lwrist 2.52827
lhand -27.505 -10.4078
lfingers 7.12502
lthumb -0.907787 19.57
rfemur -30.8104 -0.449418 21.1922
rtibia 41.6101
rfoot -11.0928 -0.4569
rtoes 17.5536
lfemur -29.7978 3.41257 -16.7827
ltibia 41.2558
lfoot -8.34627 6.01824
ltoes -5.46953
338
root 0.268389 16.8788 3.8348 1.21853 0.693742 -1.24268
lowerback 7.39391 1.25895 -1.04496
upperback 4.94263 1.61267 1.44204
thorax 0.888475 0.763458 1.96598
lowerneck -10.494 -0.791572 -1.0924
upperneck 34.087 -1.37057 1.5401
head 13.1789 -0.522803 0.608603
rclavicle 1.88348e-014 -2.18663e-015
rhumerus -13.7028 -11.2182 -84.8572
rradius 33.3803
rwrist 27.9025
rhand -24.0158 -25.3561
rfingers 7.12502
rthumb 2.46214 -55.3216
lclavicle 1.88348e-014 -2.18663e-015
lhumerus -15.9682 12.0575 86.3942
lradius 12.8691
lwrist 1.40303
lhand -27.5425 -10.1897
lfingers 7.12502
lthumb -0.944054 19.7879
rfemur -30.2767 -0.525857 21.1872
rtibia 40.6095
rfoot -10.8944 -0.329623
rtoes 18.027
lfemur -29.282 3.4269 -16.7916
ltibia 40.207
lfoot -8.11201 5.85405
ltoes -5.1741
339
root 0.261032 16.931 3.8849 1.4494 0.772295 -1.23492
lowerback 7.12346 1.29934 -1.04762
upperback 4.83583 1.66841 1.44217
thorax 0.924665 0.79182 1.9683
lowerneck -10.4556 -0.817358 -1.12135
upperneck 34.0897 -1.40957 1.57179
head 13.1729 -0.538682 0.621026
rclavicle 1.55052e-014 9.93923e-016
rhumerus -13.7709 -11.1819 -84.7963
rradius 33.6777
rwrist 27.7702
rhand -24.1106 -25.3791
rfingers 7.12502
rthumb 2.37056 -55.3457
lclavicle 1.55052e-014 9.93923e-016
lhumerus -16.3898 12.4519 86.0549
lradius 12.6997
lwrist 0.416877
lhand -27.5415 -9.94992
lfingers 7.12502
lthumb -0.943117 20.0277
rfemur -29.7958 -0.592422 21.1912
rtibia 39.6856
rfoot -10.7049 -0.231138
rtoes 18.4897
lfemur -28.8143 3.44244 -16.7879
ltibia 39.2307
lfoot -7.91001 5.67725
ltoes -4.9186
340
root 0.253496 16.978 3.93415 1.6709 0.865077 -1.23735
lowerback 6.85029 1.33194 -1.03771
upperback 4.73447 1.71447 1.44424
thorax 0.96889 0.815485 1.96666
lowerneck -10.4324 -0.84355 -1.14568
upperneck 34.0892 -1.44897 1.59948
head 13.1689 -0.554654 0.63094
rclavicle 1.63997e-014 9.93923e-016
rhumerus -13.8196 -11.1148 -84.7449
rradius 33.9571
rwrist 27.6423
rhand -24.2409 -25.4227
rfingers 7.12502
rthumb 2.24475 -55.3906
lclavicle 1.63997e-014 9.93923e-016
lhumerus -16.8167 12.7817 85.713
lradius 12.5592
lwrist -0.284465
lhand -27.4915 -9.70181
lfingers 7.12502
lthumb -0.894771 20.2761
rfemur -29.3629 -0.656566 21.2073
rtibia 38.841
rfoot -10.5229 -0.168202
rtoes 18.8708
lfemur -28.3838 3.44939 -16.7695
ltibia 38.3281
lfoot -7.74473 5.49835
ltoes -4.70966
